<svg width="24" height="24" viewBox="0 0 24 24" fill="none" xmlns="http://www.w3.org/2000/svg">
<path d="M23.317 5.49671C23.3193 5.463 23.3216 5.42891 23.3216 5.39406C23.3216 5.31755 23.3045 5.2543 23.2875 5.20089C22.8595 2.23361 18.0177 0 12.0001 0C5.98301 0 1.14157 2.23323 0.713558 5.20013C0.698028 5.24748 0.678711 5.31376 0.678711 5.39406C0.678711 5.42815 0.680984 5.46111 0.683256 5.49406V5.53913C0.680984 5.57208 0.678711 5.60466 0.678711 5.63761V18.3624C0.678711 21.5236 5.65158 24 12.0001 24C18.3487 24 23.3216 21.5236 23.3216 18.3624V5.63799C23.3216 5.6039 23.3193 5.57057 23.317 5.53686V5.49671ZM12.0001 1.52114C17.0897 1.52114 21.5103 3.34833 21.6792 5.51603C21.5107 7.68373 17.0893 9.51091 12.0001 9.51091C6.91023 9.51091 2.48999 7.68373 2.32182 5.51603C2.48961 3.34871 6.91061 1.52114 12.0001 1.52114ZM21.6936 18.3624C21.6936 20.5555 17.1639 22.4789 11.9998 22.4789C6.83562 22.4789 2.30629 20.5558 2.30629 18.3624V16.9829C4.31111 18.64 7.92496 19.6464 12.0001 19.6464C16.0753 19.6464 19.6892 18.64 21.694 16.9829V18.3624H21.6936ZM21.6936 14.0096C21.6936 16.2026 17.1639 18.126 11.9998 18.126C6.83562 18.126 2.30629 16.2026 2.30629 14.0096V12.5411C4.31111 14.1982 7.92496 15.2046 12.0001 15.2046C16.0753 15.2046 19.6892 14.1982 21.694 12.5411V14.0096H21.6936ZM21.6936 9.56773C21.6936 11.7608 17.1639 13.6846 11.9998 13.6846C6.83562 13.6846 2.30629 11.7608 2.30629 9.56773V8.36817C4.31149 10.0249 7.92572 11.0321 12.0001 11.0321C16.0753 11.0321 19.6892 10.0249 21.694 8.36817V9.56773H21.6936Z" fill="#FCFCFD"/>
</svg>
